<svg width="28" height="36" viewBox="0 0 28 36" fill="none" xmlns="http://www.w3.org/2000/svg">
<path d="M1.75 30.25C1.25417 30.25 0.838542 30.0823 0.503125 29.7469C0.167708 29.4115 0 28.9958 0 28.5C0 28.0042 0.167708 27.5885 0.503125 27.2531C0.838542 26.9177 1.25417 26.75 1.75 26.75H3.5V14.5C3.5 12.0792 4.22917 9.92812 5.6875 8.04688C7.14583 6.16563 9.04167 4.93333 11.375 4.35V3.125C11.375 2.39583 11.6302 1.77604 12.1406 1.26562C12.651 0.755208 13.2708 0.5 14 0.5C14.7292 0.5 15.349 0.755208 15.8594 1.26562C16.3698 1.77604 16.625 2.39583 16.625 3.125V4.35C18.9583 4.93333 20.8542 6.16563 22.3125 8.04688C23.7708 9.92812 24.5 12.0792 24.5 14.5V26.75H26.25C26.7458 26.75 27.1615 26.9177 27.4969 27.2531C27.8323 27.5885 28 28.0042 28 28.5C28 28.9958 27.8323 29.4115 27.4969 29.7469C27.1615 30.0823 26.7458 30.25 26.25 30.25H1.75ZM14 35.5C13.0375 35.5 12.2135 35.1573 11.5281 34.4719C10.8427 33.7865 10.5 32.9625 10.5 32H17.5C17.5 32.9625 17.1573 33.7865 16.4719 34.4719C15.7865 35.1573 14.9625 35.5 14 35.5Z" fill="#4B4B4B"/>
</svg>
