<svg width="198" height="46" viewBox="0 0 198 46" fill="none" xmlns="http://www.w3.org/2000/svg">
<path d="M29.0035 0.5C21.5665 0.5 15.0537 4.15234 11.3588 9.59337C10.2373 7.53658 8.6787 6.10341 6.72478 5.61493C5.39042 5.28134 3.98023 5.51171 2.62402 6.03333L2.62401 6.03329L2.61782 6.03576C1.35587 6.54054 0.738956 8.0349 1.23928 9.2857C1.74406 10.5476 3.23841 11.1646 4.48921 10.6642C4.95727 10.477 5.33623 10.4236 5.58225 10.4851L5.59047 10.4871L5.59875 10.4889C5.80348 10.5328 6.10326 10.7043 6.44707 11.0946C6.78419 11.4773 7.13275 12.0365 7.44187 12.7795C8.05944 14.2641 8.50182 16.4406 8.40381 19.2828L8.40351 19.2914V19.3V19.3006V19.3012V19.3018V19.3024V19.303V19.3036V19.3042V19.3048V19.3054V19.306V19.3066V19.3072V19.3078V19.3084V19.309V19.3097V19.3103V19.3109V19.3115V19.3122V19.3128V19.3134V19.3141V19.3147V19.3153V19.316V19.3166V19.3173V19.3179V19.3186V19.3192V19.3199V19.3205V19.3212V19.3218V19.3225V19.3232V19.3238V19.3245V19.3252V19.3258V19.3265V19.3272V19.3279V19.3285V19.3292V19.3299V19.3306V19.3313V19.332V19.3327V19.3334V19.334V19.3347V19.3354V19.3361V19.3368V19.3375V19.3382V19.339V19.3397V19.3404V19.3411V19.3418V19.3425V19.3432V19.3439V19.3447V19.3454V19.3461V19.3468V19.3476V19.3483V19.349V19.3498V19.3505V19.3512V19.352V19.3527V19.3534V19.3542V19.3549V19.3557V19.3564V19.3572V19.3579V19.3587V19.3594V19.3602V19.3609V19.3617V19.3624V19.3632V19.364V19.3647V19.3655V19.3662V19.367V19.3678V19.3685V19.3693V19.3701V19.3709V19.3716V19.3724V19.3732V19.374V19.3748V19.3755V19.3763V19.3771V19.3779V19.3787V19.3795V19.3803V19.381V19.3818V19.3826V19.3834V19.3842V19.385V19.3858V19.3866V19.3874V19.3882V19.389V19.3898V19.3906V19.3914V19.3922V19.393V19.3939V19.3947V19.3955V19.3963V19.3971V19.3979V19.3987V19.3996V19.4004V19.4012V19.402V19.4028V19.4037V19.4045V19.4053V19.4061V19.407V19.4078V19.4086V19.4094V19.4103V19.4111V19.4119V19.4128V19.4136V19.4144V19.4153V19.4161V19.4169V19.4178V19.4186V19.4195V19.4203V19.4211V19.422V19.4228V19.4237V19.4245V19.4254V19.4262V19.4271V19.4279V19.4288V19.4296V19.4305V19.4313V19.4322V19.433V19.4339V19.4347V19.4356V19.4364V19.4373V19.4381V19.439V19.4398V19.4407V19.4416V19.4424V19.4433V19.4441V19.445V19.4459V19.4467V19.4476V19.4485V19.4493V19.4502V19.451V19.4519V19.4528V19.4536V19.4545V19.4554V19.4562V19.4571V19.458V19.4588V19.4597V19.4606V19.4615V19.4623V19.4632V19.4641V19.4649V19.4658V19.4667V19.4676V19.4684V19.4693V19.4702V19.4711V19.4719V19.4728V19.4737V19.4745V19.4754V19.4763V19.4772V19.4781V19.4789V19.4798V19.4807V19.4816V19.4824V19.4833V19.4842V19.4851V19.4859V19.4868V19.4877V19.4886V19.4895V19.4903V19.4912V19.4921V19.493V19.4938V19.4947V19.4956V19.4965V19.4974V19.4982V19.4991V19.5V19.5009V19.5018V19.5026V19.5035V19.5044V19.5053V19.5062V19.507V19.5079V19.5088V19.5097V19.5105V19.5114V19.5123V19.5132V19.5141V19.5149V19.5158V19.5167V19.5176V19.5184V19.5193V19.5202V19.5211V19.5219V19.5228V19.5237V19.5246V19.5255V19.5263V19.5272V19.5281V19.5289V19.5298V19.5307V19.5316V19.5324V19.5333V19.5342V19.5351V19.5359V19.5368V19.5377V19.5385V19.5394V19.5403V19.5412V19.542V19.5429V19.5438V19.5446V19.5455V19.5464V19.5472V19.5481V19.549V19.5498V19.5507V19.5515V19.5524V19.5533V19.5541V19.555V19.5559V19.5567V19.5576V19.5584V19.5593V19.5602V19.561V19.5619V19.5627V19.5636V19.5644V19.5653V19.5661V19.567V19.5678V19.5687V19.5695V19.5704V19.5712V19.5721V19.5729V19.5738V19.5746V19.5755V19.5763V19.5772V19.578V19.5789V19.5797V19.5805V19.5814V19.5822V19.5831V19.5839V19.5847V19.5856V19.5864V19.5872V19.5881V19.5889V19.5897V19.5906V19.5914V19.5922V19.593V19.5939V19.5947V19.5955V19.5963V19.5972V19.598V19.5988V19.5996V19.6004V19.6013V19.6021V19.6029V19.6037V19.6045V19.6053V19.6061V19.607V19.6078V19.6086V19.6094V19.6102V19.611V19.6118V19.6126V19.6134V19.6142V19.615V19.6158V19.6166V19.6174V19.6182V19.619V19.6197V19.6205V19.6213V19.6221V19.6229V19.6237V19.6245V19.6252V19.626V19.6268V19.6276V19.6284V19.6291V19.6299V19.6307V19.6315V19.6322V19.633V19.6338V19.6345V19.6353V19.636V19.6368V19.6376V19.6383V19.6391V19.6398V19.6406V19.6413V19.6421V19.6428V19.6436V19.6443V19.6451V19.6458V19.6466V19.6473V19.648V19.6488V19.6495V19.6502V19.651V19.6517V19.6524V19.6532V19.6539V19.6546V19.6553V19.6561V19.6568V19.6575V19.6582V19.6589V19.6596V19.6603V19.661V19.6618V19.6625V19.6632V19.6639V19.6646V19.6653V19.666V19.6666V19.6673V19.668V19.6687V19.6694V19.6701V19.6708V19.6715V19.6721V19.6728V19.6735V19.6742V19.6748V19.6755V19.6762V19.6768V19.6775V19.6782V19.6788V19.6795V19.6801V19.6808V19.6814V19.6821V19.6827V19.6834V19.684V19.6847V19.6853V19.6859V19.6866V19.6872V19.6878V19.6885V19.6891V19.6897V19.6903V19.691V19.6916V19.6922V19.6928V19.6934V19.694V19.6946V19.6952V19.6958V19.6964V19.697V19.6976V19.6982V19.6988V19.6994V19.7H8.40337L8.40366 19.7119C8.501 23.8004 9.97995 27.5192 12.3994 30.5178C9.84593 31.8123 8.00351 34.4178 8.00351 37.5C8.00351 41.7806 11.5318 45.3 15.9035 45.3C20.2599 45.3 23.7788 41.8052 23.8034 37.545C25.4642 37.9401 27.1889 38.1 28.9035 38.1C30.7214 38.1 32.4565 37.8582 34.1075 37.4476C34.2404 41.6154 37.7164 45 42.0035 45C46.3665 45 49.8894 41.4946 49.9035 37.2257C50.1945 34.2982 48.4315 31.6999 45.814 30.4117C48.3188 27.3101 49.7035 23.4924 49.7035 19.4C49.7035 17.8249 48.9154 16.791 48.3198 16.3127C47.2865 15.4538 45.9197 15.2 44.4285 15.2C43.0491 15.2 41.479 15.4193 39.8409 15.6481C39.706 15.667 39.5705 15.6859 39.4347 15.7048L39.4244 15.7062L39.4141 15.7081C38.3166 15.9076 36.8382 16.1535 35.5409 16.2514C34.8906 16.3005 34.3048 16.3108 33.8436 16.265C33.6132 16.2421 33.428 16.2064 33.2881 16.1615C33.144 16.1152 33.0796 16.069 33.0571 16.0464L33.0435 16.0329L33.0307 16.0219C33.031 16.0216 33.0028 15.9907 32.9681 15.888C32.9309 15.7778 32.8991 15.6234 32.8771 15.4221C32.833 15.0199 32.8346 14.4983 32.8653 13.9138C32.9119 13.0288 33.0216 12.0562 33.1164 11.2159C33.1464 10.95 33.1749 10.6973 33.1995 10.4648C33.4479 8.87419 33.6796 7.26021 33.6408 5.81161C33.602 4.36199 33.2913 3.0001 32.3825 1.9738C31.8041 1.28233 30.7721 0.5 29.0035 0.5ZM19.0035 37.6V37.6139L19.0043 37.6277C19.0858 39.0956 17.7642 40.4 16.1035 40.4C14.4699 40.4 13.2035 39.1142 13.2035 37.6C13.2035 36.0858 14.4699 34.8 16.1035 34.8C17.7371 34.8 19.0035 36.0858 19.0035 37.6ZM29.7743 19.7763L29.7754 19.7773C31.0563 20.8911 32.7739 21.2496 34.5875 21.2625C36.4035 21.2754 38.3971 20.9412 40.2941 20.5917L40.2957 20.5914C41.0906 20.4424 42.1033 20.2696 43.0373 20.159C43.7329 20.0767 44.3435 20.0345 44.7832 20.0487C44.3252 27.3166 37.5083 33.2 29.1035 33.2C20.4224 33.2 13.5035 26.9699 13.5035 19.4C13.5035 11.9508 20.2046 5.79611 28.6962 5.50926C28.7052 5.61209 28.7107 5.73493 28.7113 5.87867C28.7128 6.22514 28.6863 6.6409 28.6433 7.08977C28.5774 7.77663 28.476 8.51108 28.3864 9.15907C28.3587 9.36004 28.3321 9.5527 28.308 9.73304C28.2923 9.84915 28.2765 9.96566 28.2606 10.0825C28.0259 11.8087 27.7819 13.6035 27.8667 15.2261C27.9578 16.9692 28.4314 18.6012 29.7743 19.7763ZM42.3035 40.3C40.6699 40.3 39.4035 39.0142 39.4035 37.5C39.4035 35.9858 40.6699 34.7 42.3035 34.7C43.9371 34.7 45.2035 35.9858 45.2035 37.5C45.2035 39.0142 43.9371 40.3 42.3035 40.3Z" fill="#89E219" stroke="#89E219"/>
<path d="M79.6106 28.94C79.6106 31.372 78.6986 33.276 76.8746 34.652C75.0506 36.028 72.3626 36.716 68.8106 36.716C67.4666 36.716 66.2186 36.62 65.0666 36.428C63.9146 36.236 62.9226 35.948 62.0906 35.564C61.2906 35.148 60.6506 34.636 60.1706 34.028C59.7226 33.42 59.4986 32.7 59.4986 31.868C59.4986 31.1 59.6586 30.46 59.9786 29.948C60.2986 29.404 60.6826 28.956 61.1306 28.604C62.0586 29.116 63.1146 29.58 64.2986 29.996C65.5146 30.38 66.9066 30.572 68.4746 30.572C69.4666 30.572 70.2186 30.428 70.7306 30.14C71.2746 29.852 71.5466 29.468 71.5466 28.988C71.5466 28.54 71.3546 28.188 70.9706 27.932C70.5866 27.676 69.9466 27.468 69.0506 27.308L67.6106 27.02C64.8266 26.476 62.7466 25.628 61.3706 24.476C60.0266 23.292 59.3546 21.612 59.3546 19.436C59.3546 18.252 59.6106 17.18 60.1226 16.22C60.6346 15.26 61.3546 14.46 62.2826 13.82C63.2106 13.18 64.3146 12.684 65.5946 12.332C66.9066 11.98 68.3466 11.804 69.9146 11.804C71.0986 11.804 72.2026 11.9 73.2266 12.092C74.2826 12.252 75.1946 12.508 75.9626 12.86C76.7306 13.212 77.3386 13.676 77.7866 14.252C78.2346 14.796 78.4586 15.452 78.4586 16.22C78.4586 16.956 78.3146 17.596 78.0266 18.14C77.7706 18.652 77.4346 19.084 77.0186 19.436C76.7626 19.276 76.3786 19.116 75.8666 18.956C75.3546 18.764 74.7946 18.604 74.1866 18.476C73.5786 18.316 72.9546 18.188 72.3146 18.092C71.7066 17.996 71.1466 17.948 70.6346 17.948C69.5786 17.948 68.7626 18.076 68.1866 18.332C67.6106 18.556 67.3226 18.924 67.3226 19.436C67.3226 19.788 67.4826 20.076 67.8026 20.3C68.1226 20.524 68.7306 20.732 69.6266 20.924L71.1146 21.26C74.1866 21.964 76.3626 22.94 77.6426 24.188C78.9546 25.404 79.6106 26.988 79.6106 28.94ZM92.1956 27.884C92.1956 28.716 92.4516 29.308 92.9636 29.66C93.5076 30.012 94.2596 30.188 95.2196 30.188C95.6996 30.188 96.1956 30.156 96.7076 30.092C97.2196 29.996 97.6676 29.884 98.0516 29.756C98.3396 30.108 98.5796 30.508 98.7716 30.956C98.9956 31.372 99.1076 31.884 99.1076 32.492C99.1076 33.708 98.6436 34.7 97.7156 35.468C96.8196 36.236 95.2196 36.62 92.9156 36.62C90.0996 36.62 87.9236 35.98 86.3876 34.7C84.8836 33.42 84.1316 31.34 84.1316 28.46V7.91602C84.4836 7.82002 84.9796 7.72402 85.6196 7.62802C86.2916 7.50002 86.9956 7.43602 87.7316 7.43602C89.1396 7.43602 90.2276 7.69202 90.9956 8.20402C91.7956 8.68402 92.1956 9.72402 92.1956 11.324V14.396H98.4836C98.6756 14.748 98.8516 15.196 99.0116 15.74C99.2036 16.252 99.2996 16.828 99.2996 17.468C99.2996 18.588 99.0436 19.404 98.5316 19.916C98.0516 20.396 97.3956 20.636 96.5636 20.636H92.1956V27.884ZM111.894 35.852C111.574 35.948 111.062 36.044 110.358 36.14C109.686 36.236 108.982 36.284 108.246 36.284C107.542 36.284 106.902 36.236 106.326 36.14C105.782 36.044 105.318 35.852 104.934 35.564C104.55 35.276 104.246 34.892 104.022 34.412C103.83 33.9 103.734 33.244 103.734 32.444V18.044C103.734 17.308 103.862 16.684 104.118 16.172C104.406 15.628 104.806 15.148 105.318 14.732C105.83 14.316 106.454 13.948 107.19 13.628C107.958 13.276 108.774 12.972 109.638 12.716C110.502 12.46 111.398 12.268 112.326 12.14C113.254 11.98 114.182 11.9 115.11 11.9C116.646 11.9 117.862 12.204 118.758 12.812C119.654 13.388 120.102 14.348 120.102 15.692C120.102 16.14 120.038 16.588 119.91 17.036C119.782 17.452 119.622 17.836 119.43 18.188C118.758 18.188 118.07 18.22 117.366 18.284C116.662 18.348 115.974 18.444 115.302 18.572C114.63 18.7 113.99 18.844 113.382 19.004C112.806 19.132 112.31 19.292 111.894 19.484V35.852ZM147.202 24.236C147.202 26.22 146.898 27.996 146.29 29.564C145.682 31.1 144.818 32.396 143.698 33.452C142.61 34.508 141.298 35.308 139.762 35.852C138.226 36.396 136.514 36.668 134.626 36.668C132.738 36.668 131.026 36.38 129.49 35.804C127.954 35.228 126.626 34.412 125.506 33.356C124.418 32.268 123.57 30.956 122.962 29.42C122.354 27.884 122.05 26.156 122.05 24.236C122.05 22.348 122.354 20.636 122.962 19.1C123.57 17.564 124.418 16.268 125.506 15.212C126.626 14.124 127.954 13.292 129.49 12.716C131.026 12.14 132.738 11.852 134.626 11.852C136.514 11.852 138.226 12.156 139.762 12.764C141.298 13.34 142.61 14.172 143.698 15.26C144.818 16.316 145.682 17.612 146.29 19.148C146.898 20.684 147.202 22.38 147.202 24.236ZM130.402 24.236C130.402 26.188 130.77 27.692 131.506 28.748C132.274 29.772 133.33 30.284 134.674 30.284C136.018 30.284 137.042 29.756 137.746 28.7C138.482 27.644 138.85 26.156 138.85 24.236C138.85 22.316 138.482 20.844 137.746 19.82C137.01 18.764 135.97 18.236 134.626 18.236C133.282 18.236 132.242 18.764 131.506 19.82C130.77 20.844 130.402 22.316 130.402 24.236ZM159.967 35.852C159.615 35.916 159.087 35.996 158.383 36.092C157.711 36.22 157.023 36.284 156.319 36.284C155.615 36.284 154.975 36.236 154.399 36.14C153.855 36.044 153.391 35.852 153.007 35.564C152.623 35.276 152.319 34.892 152.095 34.412C151.903 33.9 151.807 33.244 151.807 32.444V4.60402C152.159 4.54002 152.671 4.46002 153.343 4.36402C154.047 4.23602 154.751 4.17202 155.455 4.17202C156.159 4.17202 156.783 4.22002 157.327 4.31602C157.903 4.41202 158.383 4.60402 158.767 4.89202C159.151 5.18002 159.439 5.58002 159.631 6.09202C159.855 6.57202 159.967 7.21202 159.967 8.01202V35.852ZM173.9 35.852C173.548 35.916 173.02 35.996 172.316 36.092C171.644 36.22 170.956 36.284 170.252 36.284C169.548 36.284 168.908 36.236 168.332 36.14C167.788 36.044 167.324 35.852 166.94 35.564C166.556 35.276 166.252 34.892 166.028 34.412C165.836 33.9 165.74 33.244 165.74 32.444V4.60402C166.092 4.54002 166.604 4.46002 167.276 4.36402C167.98 4.23602 168.684 4.17202 169.388 4.17202C170.092 4.17202 170.716 4.22002 171.26 4.31602C171.836 4.41202 172.316 4.60402 172.7 4.89202C173.084 5.18002 173.372 5.58002 173.564 6.09202C173.788 6.57202 173.9 7.21202 173.9 8.01202V35.852ZM187.689 35.852C187.369 35.948 186.857 36.044 186.153 36.14C185.481 36.236 184.777 36.284 184.041 36.284C183.337 36.284 182.697 36.236 182.121 36.14C181.577 36.044 181.113 35.852 180.729 35.564C180.345 35.276 180.041 34.892 179.817 34.412C179.625 33.9 179.529 33.244 179.529 32.444V18.044C179.529 17.308 179.657 16.684 179.913 16.172C180.201 15.628 180.601 15.148 181.113 14.732C181.625 14.316 182.249 13.948 182.985 13.628C183.753 13.276 184.569 12.972 185.433 12.716C186.297 12.46 187.193 12.268 188.121 12.14C189.049 11.98 189.977 11.9 190.905 11.9C192.441 11.9 193.657 12.204 194.553 12.812C195.449 13.388 195.897 14.348 195.897 15.692C195.897 16.14 195.833 16.588 195.705 17.036C195.577 17.452 195.417 17.836 195.225 18.188C194.553 18.188 193.865 18.22 193.161 18.284C192.457 18.348 191.769 18.444 191.097 18.572C190.425 18.7 189.785 18.844 189.177 19.004C188.601 19.132 188.105 19.292 187.689 19.484V35.852Z" fill="#F2F8F2"/>
</svg>
