<svg width="40" height="40" viewBox="0 0 40 40" fill="none" xmlns="http://www.w3.org/2000/svg">
<rect width="40" height="40" rx="5" fill="#FF4B4B"/>
<mask id="mask0_6_1944" style="mask-type:alpha" maskUnits="userSpaceOnUse" x="8" y="8" width="24" height="24">
<rect x="8" y="8" width="24" height="24" fill="#D9D9D9"/>
</mask>
<g mask="url(#mask0_6_1944)">
<path d="M13 29C12.45 29 11.9792 28.8042 11.5875 28.4125C11.1958 28.0208 11 27.55 11 27V13C11 12.45 11.1958 11.9792 11.5875 11.5875C11.9792 11.1958 12.45 11 13 11H27C27.55 11 28.0208 11.1958 28.4125 11.5875C28.8042 11.9792 29 12.45 29 13V15.5H27V13H13V27H27V24.5H29V27C29 27.55 28.8042 28.0208 28.4125 28.4125C28.0208 28.8042 27.55 29 27 29H13ZM21 25C20.45 25 19.9792 24.8042 19.5875 24.4125C19.1958 24.0208 19 23.55 19 23V17C19 16.45 19.1958 15.9792 19.5875 15.5875C19.9792 15.1958 20.45 15 21 15H28C28.55 15 29.0208 15.1958 29.4125 15.5875C29.8042 15.9792 30 16.45 30 17V23C30 23.55 29.8042 24.0208 29.4125 24.4125C29.0208 24.8042 28.55 25 28 25H21ZM28 23V17H21V23H28ZM24 21.5C24.4167 21.5 24.7708 21.3542 25.0625 21.0625C25.3542 20.7708 25.5 20.4167 25.5 20C25.5 19.5833 25.3542 19.2292 25.0625 18.9375C24.7708 18.6458 24.4167 18.5 24 18.5C23.5833 18.5 23.2292 18.6458 22.9375 18.9375C22.6458 19.2292 22.5 19.5833 22.5 20C22.5 20.4167 22.6458 20.7708 22.9375 21.0625C23.2292 21.3542 23.5833 21.5 24 21.5Z" fill="white"/>
</g>
</svg>
