<svg width="40" height="40" viewBox="0 0 40 40" fill="none" xmlns="http://www.w3.org/2000/svg">
<rect width="40" height="40" rx="5" fill="#1CB0F6"/>
<mask id="mask0_6_1952" style="mask-type:alpha" maskUnits="userSpaceOnUse" x="8" y="8" width="24" height="24">
<rect x="8" y="8" width="24" height="24" fill="#D9D9D9"/>
</mask>
<g mask="url(#mask0_6_1952)">
<path d="M24 19C24.2833 19 24.5208 18.9042 24.7125 18.7125C24.9042 18.5208 25 18.2833 25 18C25 17.7167 24.9042 17.4792 24.7125 17.2875C24.5208 17.0958 24.2833 17 24 17C23.7167 17 23.4792 17.0958 23.2875 17.2875C23.0958 17.4792 23 17.7167 23 18C23 18.2833 23.0958 18.5208 23.2875 18.7125C23.4792 18.9042 23.7167 19 24 19ZM16 17H21V15H16V17ZM12.5 29C11.9333 27.1 11.375 25.2042 10.825 23.3125C10.275 21.4208 10 19.4833 10 17.5C10 15.9667 10.5333 14.6667 11.6 13.6C12.6667 12.5333 13.9667 12 15.5 12H20.5C20.9833 11.3667 21.5708 10.875 22.2625 10.525C22.9542 10.175 23.7 10 24.5 10C24.9167 10 25.2708 10.1458 25.5625 10.4375C25.8542 10.7292 26 11.0833 26 11.5C26 11.6 25.9875 11.7 25.9625 11.8C25.9375 11.9 25.9083 11.9917 25.875 12.075C25.8083 12.2583 25.7458 12.4458 25.6875 12.6375C25.6292 12.8292 25.5833 13.025 25.55 13.225L27.825 15.5H30V22.475L27.175 23.4L25.5 29H20V27H18V29H12.5ZM14 27H16V25H22V27H24L25.55 21.85L28 21.025V17.5H27L23.5 14C23.5 13.6667 23.5208 13.3458 23.5625 13.0375C23.6042 12.7292 23.6667 12.4167 23.75 12.1C23.2667 12.2333 22.8417 12.4625 22.475 12.7875C22.1083 13.1125 21.8417 13.5167 21.675 14H15.5C14.5333 14 13.7083 14.3417 13.025 15.025C12.3417 15.7083 12 16.5333 12 17.5C12 19.1333 12.225 20.7292 12.675 22.2875C13.125 23.8458 13.5667 25.4167 14 27Z" fill="white"/>
</g>
</svg>
